<svg width="300" height="341" viewBox="0 0 300 341" fill="none" xmlns="http://www.w3.org/2000/svg">
<path fill-rule="evenodd" clip-rule="evenodd" d="M244.298 77.249V321.546H46.9805C31.4117 321.546 18.7922 308.927 18.7922 293.358C18.7922 277.791 31.4117 265.171 46.9805 265.171H225.506V39.6643H37.5844C16.9135 39.6643 0 56.5774 0 77.249V302.754C0 323.425 16.9135 340.338 37.5844 340.338H263.09V77.249H244.298ZM56.3765 283.963H225.506V302.754H56.3765V283.963ZM86.141 170.207L67.4203 106.574H86.0531L95.018 146.388H95.5453L106.004 106.574H120.77L131.317 146.564H131.844L140.809 106.574H159.442L145.035 155.543H179.056V169.079H159.896V219.176H143.372V169.079H141.053L140.721 170.207H124.637L124.296 169.079H124.212V168.8L113.651 133.82H113.123L102.137 170.207H86.141Z" fill="#191919"/>
<path fill-rule="evenodd" clip-rule="evenodd" d="M262.783 0H225.566V38.8491V77.6982H262.783V116.547H300V77.6982V38.8491H262.783V0Z" fill="url(#paint0_radial_3_28)"/>
<defs>
<radialGradient id="paint0_radial_3_28" cx="0" cy="0" r="1" gradientUnits="userSpaceOnUse" gradientTransform="translate(225.566) rotate(57.4354) scale(138.288 88.5703)">
<stop stop-color="#00A3FF"/>
<stop offset="0.583333" stop-color="#0059FF"/>
<stop offset="1" stop-color="#003597"/>
</radialGradient>
</defs>
</svg>
