<svg width="430" height="530" viewBox="0 0 430 530" fill="none" xmlns="http://www.w3.org/2000/svg">
<path d="M40 42C40 40.8954 40.8954 40 42 40H388C389.105 40 390 40.8954 390 42V488C390 489.105 389.105 490 388 490H42C40.8954 490 40 489.105 40 488V42Z" fill="#A0C2FF"/>
<path d="M42 41H388V39H42V41ZM389 42V488H391V42H389ZM388 489H42V491H388V489ZM41 488V42H39V488H41ZM42 489C41.4477 489 41 488.552 41 488H39C39 489.657 40.3432 491 42 491V489ZM389 488C389 488.552 388.552 489 388 489V491C389.657 491 391 489.657 391 488H389ZM388 41C388.552 41 389 41.4477 389 42H391C391 40.3431 389.657 39 388 39V41ZM42 39C40.3432 39 39 40.3431 39 42H41C41 41.4477 41.4477 41 42 41V39Z" fill="white" fill-opacity="0.1"/>
<circle cx="214.5" cy="207.5" r="70.5" fill="#4472E1"/>
<path fill-rule="evenodd" clip-rule="evenodd" d="M99 385V490H330V385C330 335.294 289.706 295 240 295H189C139.294 295 99 335.294 99 385Z" fill="#4472E1"/>
</svg>
